<?xml version="1.0" standalone="no"?>
<!DOCTYPE svg PUBLIC "-//W3C//DTD SVG 20010904//EN"
 "http://www.w3.org/TR/2001/REC-SVG-20010904/DTD/svg10.dtd">
<svg version="1.0" xmlns="http://www.w3.org/2000/svg"
 width="1024.000000pt" height="1024.000000pt" viewBox="0 0 1024.000000 1024.000000"
 preserveAspectRatio="xMidYMid meet">

<g transform="translate(0.000000,1024.000000) scale(0.100000,-0.100000)"
fill="#000000" stroke="none">
<path d="M2993 8939 c-215 -36 -384 -192 -438 -405 -14 -54 -15 -250 -13
-1695 l3 -1634 26 -72 c61 -166 189 -287 358 -337 50 -14 256 -16 2195 -16
l2141 0 66 24 c176 62 307 207 354 391 13 52 15 261 15 1670 0 1760 3 1657
-58 1783 -39 81 -159 200 -242 241 -133 64 2 61 -2280 60 -1141 -1 -2098 -5
-2127 -10z m4312 -264 c60 -29 118 -88 146 -149 18 -39 19 -89 19 -1284 0
-994 -3 -1243 -13 -1240 -6 2 -101 32 -210 68 l-197 64 0 581 c0 444 -3 586
-13 605 -7 15 -48 45 -102 75 -246 137 -307 184 -530 410 -121 123 -216 210
-290 264 -378 278 -764 335 -1110 164 -121 -60 -224 -142 -420 -335 -216 -213
-325 -304 -458 -382 -177 -104 -284 -143 -722 -262 -129 -35 -164 -48 -182
-69 l-23 -26 0 -612 c0 -337 -4 -617 -8 -623 -7 -11 -389 -164 -410 -164 -10
0 -12 304 -10 1368 l3 1367 22 41 c37 69 74 105 138 135 l60 29 2128 0 2128 0
54 -25z m-1695 -565 c111 -27 281 -111 395 -196 50 -37 176 -154 280 -259 105
-106 207 -205 228 -220 21 -15 35 -30 33 -33 -3 -3 -301 -65 -663 -137 -362
-73 -791 -160 -954 -193 l-297 -60 -368 79 c-203 43 -375 81 -381 84 -27 10
-10 24 65 50 268 94 517 270 814 573 182 186 328 278 503 315 103 22 243 21
345 -3z m1238 -1421 l-3 -562 -70 -19 c-38 -10 -232 -63 -430 -118 -1260 -347
-1601 -440 -1617 -440 -17 0 -18 33 -18 638 l0 639 408 81 c224 45 664 133
977 196 314 62 604 120 645 129 41 8 83 15 93 16 16 1 17 -30 15 -560z m-2898
257 c278 -57 517 -107 533 -111 l27 -7 0 -634 c0 -471 -3 -634 -11 -634 -7 0
-129 31 -273 69 -144 39 -367 97 -496 131 -129 34 -259 68 -287 76 l-53 15 0
589 c0 324 3 595 6 604 4 10 14 14 28 11 11 -3 248 -52 526 -109z m3290 -1047
c96 -34 179 -65 183 -69 4 -4 -38 -19 -95 -35 -139 -37 -2184 -623 -2544 -729
-67 -20 -133 -40 -146 -45 -22 -8 -608 162 -1768 515 l-84 26 179 70 180 70
85 -22 c76 -19 535 -148 1115 -311 166 -47 225 -60 281 -60 81 0 91 2 494 116
162 46 408 115 545 153 669 187 986 277 1155 326 102 30 199 54 215 55 17 1
109 -26 205 -60z m238 -451 c-4 -182 -5 -196 -30 -249 -36 -79 -87 -131 -160
-165 l-63 -29 -925 -2 -925 -2 75 25 c41 13 305 94 585 178 457 138 1155 350
1355 412 41 12 79 23 84 23 4 1 7 -86 4 -191z m-4465 -154 c194 -60 849 -273
892 -289 6 -2 -197 -3 -450 -2 l-460 2 -52 24 c-61 27 -127 94 -154 157 -20
45 -38 184 -24 184 4 0 116 -34 248 -76z"/>
<path d="M6715 7214 c-66 -14 -381 -77 -700 -140 -319 -64 -740 -148 -935
-188 l-355 -71 -3 -615 c-1 -338 0 -620 2 -627 5 -13 47 -3 506 125 157 43
324 90 372 103 48 13 84 27 81 33 -3 5 -1 6 5 2 7 -4 65 7 129 25 195 52 235
63 578 157 182 50 349 96 373 102 23 6 42 15 42 20 0 5 7 7 15 4 13 -5 15 59
15 545 0 303 -1 551 -2 550 -2 -1 -57 -12 -123 -25z m106 -197 c-10 -9 -11 -8
-5 6 3 10 9 15 12 12 3 -3 0 -11 -7 -18z m-526 -407 c3 -6 -1 -7 -9 -4 -18 7
-21 14 -7 14 6 0 13 -4 16 -10z m382 4 c-3 -3 -12 -4 -19 -1 -8 3 -5 6 6 6 11
1 17 -2 13 -5z m150 -59 c0 -8 -4 -12 -9 -9 -5 3 -6 10 -3 15 9 13 12 11 12
-6z m-140 -50 c0 -8 -4 -12 -9 -9 -5 3 -6 10 -3 15 9 13 12 11 12 -6z m70 -81
c-3 -3 -12 -4 -19 -1 -8 3 -5 6 6 6 11 1 17 -2 13 -5z m-10 -236 c-3 -8 -6 -5
-6 6 -1 11 2 17 5 13 3 -3 4 -12 1 -19z m-142 3 c3 -5 2 -12 -3 -15 -5 -3 -9
1 -9 9 0 17 3 19 12 6z m189 -13 c-3 -4 -9 -8 -15 -8 -5 0 -9 4 -9 8 0 5 7 9
15 9 8 0 12 -4 9 -9z m-1961 -41 c3 -8 -1 -14 -8 -14 -7 0 -11 6 -8 14 3 7 6
13 8 13 2 0 5 -6 8 -13z m-20 -82 c-3 -9 -8 -14 -10 -11 -3 3 -2 9 2 15 9 16
15 13 8 -4z m1318 -82 c12 -16 12 -17 -2 -6 -9 7 -20 9 -24 5 -5 -4 -5 -1 -1
6 9 16 11 15 27 -5z m-1324 -15 c-3 -8 -6 -5 -6 6 -1 11 2 17 5 13 3 -3 4 -12
1 -19z m1380 16 c-3 -3 -12 -4 -19 -1 -8 3 -5 6 6 6 11 1 17 -2 13 -5z m-1332
-64 c3 -6 -1 -7 -9 -4 -18 7 -21 14 -7 14 6 0 13 -4 16 -10z m1076 -8 c-7 -2
-18 1 -23 6 -8 8 -4 9 13 5 13 -4 18 -8 10 -11z m-296 -72 c3 -6 -1 -7 -9 -4
-18 7 -21 14 -7 14 6 0 13 -4 16 -10z m-654 -188 c-7 -2 -18 1 -23 6 -8 8 -4
9 13 5 13 -4 18 -8 10 -11z"/>
<path d="M6625 5834 c-220 -63 -512 -146 -650 -184 -137 -38 -428 -119 -645
-181 -565 -159 -638 -178 -701 -179 -57 0 -68 3 -744 193 -598 169 -710 199
-730 199 -11 0 -89 -26 -172 -59 l-153 -59 57 -18 c48 -16 58 -16 67 -4 9 12
15 12 36 0 l25 -14 -27 6 c-16 4 -28 2 -28 -3 0 -14 49 -22 70 -11 13 7 21 7
25 0 4 -6 10 -8 15 -5 5 3 11 1 14 -4 4 -5 -8 -7 -26 -4 -59 9 -26 -4 116 -47
120 -36 143 -40 160 -30 19 12 20 12 7 -3 -7 -10 -11 -17 -7 -17 3 0 186 -54
407 -121 221 -66 404 -118 407 -115 3 4 0 6 -7 6 -7 0 -9 5 -6 10 3 6 16 10
28 10 18 0 19 -2 7 -10 -13 -8 -13 -10 2 -10 9 0 18 3 21 8 2 4 2 2 1 -5 -2
-6 2 -14 9 -16 7 -2 -1 -2 -18 1 -62 9 -14 -8 200 -72 l220 -67 97 28 c53 14
95 30 92 34 -2 4 1 11 7 15 8 5 9 3 4 -6 -10 -17 -171 -61 1232 342 128 37
210 65 206 71 -4 6 -1 7 7 2 17 -11 564 146 548 158 -9 5 -5 6 9 2 13 -3 128
25 286 70 146 41 274 75 284 76 11 0 2 8 -22 20 -22 10 -48 17 -58 15 -9 -2
-15 0 -11 5 3 5 4 9 2 9 -2 0 -57 18 -122 40 -65 22 -123 40 -129 39 -7 0
-192 -52 -412 -115z m-3365 -194 c0 -5 -7 -7 -15 -4 -8 4 -15 8 -15 10 0 2 7
4 15 4 8 0 15 -4 15 -10z m38 -12 c-2 -6 -10 -14 -16 -16 -7 -2 -10 2 -6 12 7
18 28 22 22 4z m-245 -15 c-6 -16 -25 -13 -31 5 -2 6 6 10 16 9 12 -1 18 -6
15 -14z m287 7 c0 -5 -7 -7 -15 -4 -8 4 -15 8 -15 10 0 2 7 4 15 4 8 0 15 -4
15 -10z m-333 -15 c0 -8 -4 -12 -9 -9 -4 3 -8 9 -8 15 0 5 4 9 8 9 5 0 9 -7 9
-15z m400 -1 c-3 -3 -12 -4 -19 -1 -8 3 -5 6 6 6 11 1 17 -2 13 -5z m-453 -23
c3 -4 0 -16 -7 -25 -11 -15 -16 -15 -45 -3 -33 13 -33 14 -10 25 28 13 55 15
62 3z m34 -16 c-3 -3 -9 2 -12 12 -6 14 -5 15 5 6 7 -7 10 -15 7 -18z m455
-132 c-7 -2 -19 -2 -25 0 -7 3 -2 5 12 5 14 0 19 -2 13 -5z m67 3 c0 -3 -4 -8
-10 -11 -5 -3 -10 -1 -10 4 0 6 5 11 10 11 6 0 10 -2 10 -4z m-113 -22 c-3 -3
-12 -4 -19 -1 -8 3 -5 6 6 6 11 1 17 -2 13 -5z m47 -2 c2 -4 -5 -9 -17 -9 -17
-2 -19 0 -7 7 18 12 18 12 24 2z m167 -65 c-5 -5 -17 -5 -28 2 -16 9 -15 10 9
9 16 -2 24 -6 19 -11z m68 -21 c-8 -8 -13 -8 -16 0 -2 7 -14 10 -26 7 -20 -4
-20 -3 3 10 29 16 60 3 39 -17z m38 12 c-3 -8 -6 -5 -6 6 -1 11 2 17 5 13 3
-3 4 -12 1 -19z m1060 -44 c-3 -3 -12 -4 -19 -1 -8 3 -5 6 6 6 11 1 17 -2 13
-5z m-878 -17 c12 4 13 3 3 -5 -11 -7 -7 -11 15 -15 15 -3 30 -1 31 4 2 5 9 9
15 9 7 0 5 -6 -4 -15 -13 -13 -22 -13 -79 4 -50 14 -59 19 -40 23 14 2 29 1
34 -3 5 -4 16 -5 25 -2z m838 7 c-3 -3 -12 -4 -19 -1 -8 3 -5 6 6 6 11 1 17
-2 13 -5z m80 0 c-3 -3 -12 -4 -19 -1 -8 3 -5 6 6 6 11 1 17 -2 13 -5z m-706
-92 c-7 -2 -18 1 -23 6 -8 8 -4 9 13 5 13 -4 18 -8 10 -11z m114 -2 c3 -5 1
-10 -4 -10 -6 0 -11 5 -11 10 0 6 2 10 4 10 3 0 8 -4 11 -10z m75 -14 c0 -9
-30 -14 -35 -6 -4 6 3 10 14 10 12 0 21 -2 21 -4z m187 -73 c0 -9 -4 -10 -14
-2 -7 6 -13 12 -13 14 0 1 6 2 13 2 8 0 14 -6 14 -14z m-17 -17 c0 -2 -9 -2
-20 1 -11 3 -20 9 -20 15 0 5 9 4 20 -2 11 -6 20 -12 20 -14z m80 -16 c0 -5
-5 -10 -11 -10 -5 0 -7 5 -4 10 3 6 8 10 11 10 2 0 4 -4 4 -10z"/>
<path d="M2915 5570 c-8 -13 5 -13 25 0 13 8 13 10 -2 10 -9 0 -20 -4 -23 -10z"/>
<path d="M7270 5564 c-96 -30 -275 -84 -397 -121 -134 -39 -220 -70 -216 -76
4 -6 1 -7 -6 -3 -7 5 -87 -15 -179 -43 -92 -28 -333 -100 -537 -161 -203 -61
-379 -114 -390 -119 -11 -5 -27 -12 -35 -14 -8 -3 37 -5 100 -5 79 1 102 3 75
8 l-40 7 48 2 c27 0 46 5 43 10 -4 5 3 7 14 4 27 -7 25 -21 -2 -26 -13 -2 315
-5 727 -6 l750 -1 55 26 c62 29 92 52 84 66 -3 4 0 7 7 6 19 -4 72 88 73 127
1 18 4 31 9 28 4 -2 7 75 7 171 0 97 -3 176 -7 175 -5 0 -87 -25 -183 -55z
m177 -131 c-3 -10 -5 -2 -5 17 0 19 2 27 5 18 2 -10 2 -26 0 -35z m0 -125 c-2
-13 -4 -5 -4 17 -1 22 1 32 4 23 2 -10 2 -28 0 -40z m-1807 -274 c0 -2 -21 -4
-47 -3 -37 1 -42 3 -23 8 24 7 70 3 70 -5z m183 -1 c-7 -2 -21 -2 -30 0 -10 3
-4 5 12 5 17 0 24 -2 18 -5z m95 0 c-10 -2 -26 -2 -35 0 -10 3 -2 5 17 5 19 0
27 -2 18 -5z m140 0 c-16 -2 -40 -2 -55 0 -16 2 -3 4 27 4 30 0 43 -2 28 -4z
m115 0 c-13 -2 -35 -2 -50 0 -16 2 -5 4 22 4 28 0 40 -2 28 -4z m70 0 c-7 -2
-21 -2 -30 0 -10 3 -4 5 12 5 17 0 24 -2 18 -5z m135 0 c-21 -2 -57 -2 -80 0
-24 2 -7 4 37 4 44 0 63 -2 43 -4z m85 0 c-7 -2 -21 -2 -30 0 -10 3 -4 5 12 5
17 0 24 -2 18 -5z m114 0 c-20 -2 -52 -2 -70 0 -17 2 0 4 38 4 39 0 53 -2 32
-4z m171 0 c-21 -2 -55 -2 -75 0 -21 2 -4 4 37 4 41 0 58 -2 38 -4z m190 0
c-26 -2 -71 -2 -100 0 -29 2 -8 3 47 3 55 0 79 -1 53 -3z m100 0 c-10 -2 -26
-2 -35 0 -10 3 -2 5 17 5 19 0 27 -2 18 -5z m130 0 c-16 -2 -40 -2 -55 0 -16
2 -3 4 27 4 30 0 43 -2 28 -4z"/>
<path d="M2780 5307 c0 -117 74 -228 176 -266 43 -17 75 -21 152 -19 l97 2
-95 3 c-52 2 -99 8 -105 14 -7 7 -4 8 9 3 11 -4 21 -2 27 7 6 10 9 10 9 2 0
-16 136 -18 145 -3 3 6 11 10 16 10 6 0 8 -4 4 -9 -3 -6 55 -9 147 -8 142 2
153 3 156 21 3 11 -4 26 -14 33 -10 7 -13 13 -7 13 7 0 14 -4 18 -10 3 -5 13
-7 23 -4 14 5 15 4 2 -5 -10 -7 -11 -11 -2 -11 6 0 12 -5 12 -11 0 -5 -4 -8
-9 -5 -5 3 -11 -1 -15 -9 -4 -11 1 -15 18 -15 19 0 22 4 18 25 -2 15 0 25 7
25 6 0 11 -5 11 -11 0 -5 4 -7 10 -4 12 7 42 -8 41 -21 -1 -5 22 -9 49 -10 28
-1 49 0 48 1 -3 2 -352 118 -641 212 -59 19 -115 32 -123 29 -8 -3 -13 -2 -10
2 4 7 -145 62 -167 62 -4 0 -7 -19 -7 -43z m43 16 c-7 -2 -13 -9 -13 -14 0 -6
8 -6 19 1 13 6 28 7 43 1 13 -6 19 -10 15 -10 -5 -1 -5 -6 -1 -12 4 -8 9 -7
15 2 6 10 9 10 9 2 0 -20 -17 -24 -33 -9 -8 8 -18 12 -22 8 -5 -4 -5 -1 -1 6
9 14 1 15 -23 3 -18 -10 -35 -3 -38 17 -2 7 7 12 20 11 12 0 16 -3 10 -6z
m-26 -55 c-3 -8 -6 -5 -6 6 -1 11 2 17 5 13 3 -3 4 -12 1 -19z m178 -18 c3 -5
1 -10 -4 -10 -6 0 -11 5 -11 10 0 6 2 10 4 10 3 0 8 -4 11 -10z m157 -27 c-10
-4 -10 -8 -1 -19 10 -12 9 -13 -5 -8 -24 9 -18 35 8 33 6 0 5 -3 -2 -6z m78
-17 c0 -3 -4 -8 -10 -11 -5 -3 -10 -1 -10 4 0 6 5 11 10 11 6 0 10 -2 10 -4z
m-375 -24 c-3 -3 -11 0 -18 7 -9 10 -8 11 6 5 10 -3 15 -9 12 -12z m488 -12
c6 0 2 -7 -9 -16 -19 -15 -18 -15 4 -11 13 3 20 1 16 -5 -3 -5 -15 -8 -25 -5
-11 3 -19 0 -19 -6 0 -6 -3 -8 -6 -5 -3 4 -1 15 5 26 6 11 8 22 3 25 -4 2 -1
2 6 0 8 -1 19 -3 25 -3z m62 -28 c-3 -3 -11 0 -18 7 -9 10 -8 11 6 5 10 -3 15
-9 12 -12z m45 -12 c8 -5 11 -10 5 -10 -5 0 -17 5 -25 10 -8 5 -10 10 -5 10 6
0 17 -5 25 -10z m-60 -4 c0 -2 -7 -7 -16 -10 -8 -3 -12 -2 -9 4 6 10 25 14 25
6z m-490 -16 c0 -5 -2 -10 -4 -10 -3 0 -8 5 -11 10 -3 6 -1 10 4 10 6 0 11 -4
11 -10z m600 -5 c0 -8 -2 -15 -4 -15 -2 0 -6 7 -10 15 -3 8 -1 15 4 15 6 0 10
-7 10 -15z m-40 -15 c0 -5 -2 -10 -4 -10 -3 0 -8 5 -11 10 -3 6 -1 10 4 10 6
0 11 -4 11 -10z m-139 -23 c-13 -13 -26 -3 -16 12 3 6 11 8 17 5 6 -4 6 -10
-1 -17z m39 -7 c0 -5 -8 -10 -17 -10 -15 0 -16 2 -3 10 19 12 20 12 20 0z
m323 -7 c-7 -2 -19 -2 -25 0 -7 3 -2 5 12 5 14 0 19 -2 13 -5z"/>
<path d="M3218 5023 c7 -3 16 -2 19 1 4 3 -2 6 -13 5 -11 0 -14 -3 -6 -6z"/>
<path d="M3298 5023 c6 -2 18 -2 25 0 6 3 1 5 -13 5 -14 0 -19 -2 -12 -5z"/>
<path d="M3373 5023 c9 -2 25 -2 35 0 9 3 1 5 -18 5 -19 0 -27 -2 -17 -5z"/>
<path d="M3463 5023 c9 -2 23 -2 30 0 6 3 -1 5 -18 5 -16 0 -22 -2 -12 -5z"/>
<path d="M3558 5023 c23 -2 59 -2 80 0 20 2 1 4 -43 4 -44 0 -61 -2 -37 -4z"/>
<path d="M3758 5023 c6 -2 18 -2 25 0 6 3 1 5 -13 5 -14 0 -19 -2 -12 -5z"/>
<path d="M4306 4316 c-108 -32 -184 -103 -227 -213 -18 -46 -23 -85 -27 -190
-4 -117 -2 -138 18 -200 29 -85 57 -130 111 -176 90 -78 245 -103 374 -62 81
26 170 113 204 200 29 73 40 258 22 346 -28 133 -116 248 -219 284 -64 23
-195 28 -256 11z m198 -226 c45 -40 66 -104 66 -199 0 -96 -13 -142 -51 -186
-66 -75 -165 -64 -217 24 -25 43 -27 54 -27 161 0 93 4 122 19 154 25 50 68
76 128 76 38 0 54 -6 82 -30z"/>
<path d="M8710 4316 c-61 -16 -109 -47 -160 -102 -71 -77 -100 -170 -100 -324
1 -167 28 -249 115 -336 69 -69 141 -96 255 -97 181 0 299 91 346 267 21 79
18 270 -5 347 -61 196 -252 299 -451 245z m180 -215 c39 -28 59 -71 69 -147
17 -117 -10 -230 -65 -273 -24 -19 -38 -22 -86 -19 -66 5 -88 20 -118 82 -16
34 -20 62 -20 147 0 111 16 165 58 202 44 40 115 43 162 8z"/>
<path d="M1000 3890 l0 -421 108 3 107 3 0 115 0 115 100 6 c58 3 115 12 136
21 52 23 114 82 139 132 43 89 36 236 -15 316 -32 49 -62 75 -120 102 -46 21
-66 23 -252 26 l-203 3 0 -421z m366 199 c49 -50 40 -145 -17 -174 -15 -8 -50
-15 -77 -15 l-49 0 -6 83 c-4 45 -7 95 -7 111 l0 28 65 -4 c53 -3 70 -9 91
-29z"/>
<path d="M1720 3890 l0 -420 110 0 110 0 0 135 0 135 29 0 c27 0 34 -9 101
-135 l71 -135 114 0 c63 0 115 2 115 5 0 2 -39 72 -87 155 -47 83 -84 152 -82
153 62 42 85 68 108 116 56 120 23 283 -72 352 -69 50 -120 59 -329 59 l-188
0 0 -420z m376 196 c17 -19 24 -39 24 -69 -1 -71 -44 -107 -129 -107 l-51 0 0
106 0 106 66 -4 c58 -4 70 -8 90 -32z"/>
<path d="M2462 3893 l3 -418 263 -3 262 -2 0 100 0 100 -155 0 -155 0 0 70 0
69 128 3 127 3 1 88 2 87 -129 0 -129 0 0 65 0 65 150 0 150 0 0 95 0 95 -260
0 -260 0 2 -417z"/>
<path d="M3120 3890 l0 -420 110 0 110 0 2 211 3 210 65 -141 c68 -148 74
-155 136 -148 26 3 35 15 79 103 28 55 62 125 75 155 l25 55 3 -223 2 -223
103 3 102 3 -1 55 c-1 30 -2 218 -3 418 l-1 363 -105 -3 -104 -3 -93 -192
c-51 -106 -95 -192 -98 -193 -3 0 -46 87 -96 193 l-90 192 -112 3 -112 3 0
-421z"/>
<path d="M4900 3890 l0 -420 245 0 245 0 0 100 0 99 -137 3 -138 3 -2 45 c-1
25 -2 168 -2 318 l-1 272 -105 0 -105 0 0 -420z"/>
<path d="M5500 3889 l0 -421 198 4 198 3 66 33 c80 39 138 101 170 181 19 49
22 75 23 201 0 134 -2 150 -26 207 -32 75 -60 111 -120 152 -76 53 -121 61
-326 61 l-183 0 0 -421z m322 221 c91 -26 135 -110 126 -244 -9 -134 -67 -196
-183 -196 l-55 0 0 225 0 225 38 0 c20 0 54 -5 74 -10z"/>
<path d="M6270 3890 l0 -420 265 0 266 0 -3 98 -3 97 -152 3 -153 3 0 69 0 69
128 3 127 3 3 88 3 87 -131 0 -130 0 0 65 0 64 148 3 147 3 3 93 3 92 -261 0
-260 0 0 -420z"/>
<path d="M7121 4292 c-11 -21 -251 -797 -251 -812 0 -7 39 -10 107 -8 l106 3
20 63 20 63 120 -3 119 -3 20 -62 19 -63 115 0 c88 0 115 3 111 13 -2 6 -62
195 -133 419 l-129 408 -117 0 c-103 0 -118 -2 -127 -18z m163 -380 c14 -51
26 -97 26 -102 0 -6 -29 -10 -65 -10 -42 0 -65 4 -65 11 0 7 9 42 19 78 11 36
25 86 32 111 14 53 15 51 53 -88z"/>
<path d="M7710 3889 l0 -421 198 4 c192 3 198 4 259 32 117 54 185 157 202
309 21 183 -29 350 -127 422 -82 61 -148 75 -353 75 l-179 0 0 -421z m350 209
c69 -35 94 -89 94 -203 0 -71 -4 -100 -21 -137 -29 -64 -62 -83 -143 -83 l-65
0 -3 209 c-2 115 -1 215 2 222 8 22 86 17 136 -8z"/>
<path d="M7773 3166 c-167 -32 -285 -90 -393 -192 -123 -117 -194 -255 -237
-454 -24 -112 -24 -400 0 -507 78 -345 273 -559 577 -633 105 -25 329 -28 437
-6 339 72 559 306 624 666 22 121 17 385 -9 497 -41 180 -118 322 -241 443
-87 86 -178 137 -307 171 -102 27 -344 35 -451 15z m337 -397 c101 -48 181
-155 217 -290 25 -96 22 -328 -6 -433 -49 -185 -161 -284 -331 -294 -197 -11
-315 68 -376 253 -33 99 -44 300 -24 432 20 134 87 256 170 308 97 61 249 71
350 24z"/>
<path d="M1620 3140 l-75 -5 -3 -864 c-2 -685 0 -866 10 -873 14 -9 392 -10
414 -1 11 4 14 54 14 263 l0 258 218 5 c246 6 290 14 416 80 180 93 270 245
283 477 18 332 -154 579 -454 646 -53 12 -144 16 -408 18 -187 1 -374 -1 -415
-4z m690 -376 c101 -30 150 -104 150 -224 0 -84 -17 -130 -64 -175 -57 -55
-97 -65 -270 -65 l-146 0 0 240 0 240 138 0 c98 0 154 -5 192 -16z"/>
<path d="M3237 3142 l-127 -3 2 -872 3 -872 213 0 c178 0 214 2 222 15 12 18
14 1730 3 1731 -27 3 -208 4 -316 1z"/>
<path d="M4023 3142 l-143 -3 -2 -857 c-2 -471 1 -865 5 -874 7 -16 27 -18
206 -18 154 0 201 3 210 13 7 10 12 159 13 491 l3 478 320 -478 c176 -263 326
-483 333 -491 10 -10 57 -13 195 -13 100 0 192 3 205 6 l22 6 0 868 c0 686 -3
869 -12 872 -7 2 -67 3 -133 2 -66 -1 -157 -2 -202 -3 l-83 -1 -2 -501 -3
-501 -330 492 c-181 271 -332 496 -335 501 -7 10 -100 14 -267 11z"/>
<path d="M5678 3142 l-88 -3 0 -199 0 -200 240 0 240 0 0 -659 c0 -363 3 -666
6 -675 5 -14 34 -16 219 -16 117 0 220 3 229 6 14 6 16 74 16 675 l0 669 244
0 243 0 7 46 c7 57 6 218 -3 297 l-6 59 -630 1 c-346 1 -669 1 -717 -1z"/>
</g>
</svg>
